<?xml version="1.0" standalone="no"?>
<!DOCTYPE svg PUBLIC "-//W3C//DTD SVG 20010904//EN"
 "http://www.w3.org/TR/2001/REC-SVG-20010904/DTD/svg10.dtd">
<svg version="1.0" xmlns="http://www.w3.org/2000/svg"
 width="2816.000000pt" height="1536.000000pt" viewBox="0 0 2816.000000 1536.000000"
 preserveAspectRatio="xMidYMid meet">

<g transform="translate(0.000000,1536.000000) scale(0.100000,-0.100000)"
fill="#000000" stroke="none">
<path d="M14285 13738 c-77 -44 -214 -124 -305 -178 -91 -54 -255 -149 -365
-212 -110 -64 -299 -173 -420 -244 -121 -71 -232 -135 -246 -142 -34 -18 -92
-71 -113 -103 -32 -51 -46 -135 -46 -284 l0 -144 -132 -79 c-73 -44 -149 -89
-168 -99 -19 -11 -98 -58 -175 -105 -77 -46 -180 -108 -230 -137 -49 -30 -162
-97 -250 -151 -88 -54 -232 -140 -320 -192 -88 -53 -322 -193 -520 -313 -198
-120 -492 -297 -653 -394 l-292 -176 2 -2435 3 -2435 30 -18 c17 -10 62 -37
100 -59 39 -23 131 -78 205 -123 158 -96 1481 -887 1650 -986 63 -38 189 -113
280 -167 91 -54 491 -294 890 -532 399 -238 758 -453 798 -477 l73 -45 222
133 c122 72 260 155 307 184 47 29 231 139 410 245 427 253 661 394 735 440
33 20 168 102 300 180 226 135 307 183 565 335 58 34 245 147 415 250 171 103
339 205 375 226 36 21 207 123 380 227 l315 188 3 2431 2 2432 -47 32 c-97 65
-2561 1547 -2640 1588 -23 11 -45 26 -48 31 -4 6 -9 183 -12 393 -5 445 11
389 -148 497 -55 38 -174 123 -265 189 -150 109 -258 187 -388 279 -76 53
-109 47 -277 -50z m160 52 c-27 -12 -43 -12 -25 0 8 5 22 9 30 9 10 0 8 -3 -5
-9z m112 -62 c-8 -12 -13 -14 -16 -6 -2 7 1 14 7 16 6 2 8 11 5 20 -4 14 -3
14 5 3 7 -10 6 -20 -1 -33z m-87 22 c0 -5 -4 -10 -10 -10 -5 0 -10 5 -10 10 0
6 5 10 10 10 6 0 10 -4 10 -10z m50 0 c0 -5 -2 -10 -4 -10 -3 0 -8 5 -11 10
-3 6 -1 10 4 10 6 0 11 -4 11 -10z m61 -27 c-12 -20 -14 -14 -5 12 4 9 9 14
11 11 3 -2 0 -13 -6 -23z m-211 2 c16 -9 19 -14 10 -15 -9 0 -22 6 -28 12 -10
10 -15 10 -21 -1 -5 -8 -11 -9 -15 -3 -3 6 0 13 6 15 19 8 21 8 48 -8z m65 -5
c3 -5 1 -10 -4 -10 -6 0 -11 5 -11 10 0 6 2 10 4 10 3 0 8 -4 11 -10z m180 1
c3 -5 2 -12 -3 -15 -5 -3 -9 1 -9 9 0 17 3 19 12 6z m35 -26 c0 -8 -2 -15 -4
-15 -2 0 -6 7 -10 15 -3 8 -1 15 4 15 6 0 10 -7 10 -15z m-380 -9 c0 -2 -7 -6
-15 -10 -8 -3 -15 -1 -15 4 0 6 7 10 15 10 8 0 15 -2 15 -4z m51 -13 c13 -16
12 -17 -3 -4 -10 7 -18 15 -18 17 0 8 8 3 21 -13z m360 -16 c-10 -9 -11 -8 -5
6 3 10 9 15 12 12 3 -3 0 -11 -7 -18z m-422 -2 c1 -2 1 -8 0 -13 -2 -5 -17 0
-34 10 l-30 20 30 -7 c16 -4 32 -8 34 -10z m-58 -22 c13 -17 13 -17 -6 -3 -11
8 -22 16 -24 17 -2 2 0 3 6 3 6 0 17 -8 24 -17z m-111 -43 c0 -5 -5 -10 -11
-10 -5 0 -7 5 -4 10 3 6 8 10 11 10 2 0 4 -4 4 -10z m-30 -15 c0 -2 -10 -9
-22 -15 -22 -11 -22 -10 -4 4 21 17 26 19 26 11z m-60 -40 c-7 -9 -15 -13 -17
-11 -7 7 7 26 19 26 6 0 6 -6 -2 -15z m375 -362 c4 -399 5 -413 59 -462 20
-19 40 -26 86 -29 51 -4 69 0 127 27 62 29 271 148 283 161 8 8 41 27 80 47
19 9 59 32 88 50 83 53 85 53 79 2 -3 -24 -6 -434 -6 -911 l-1 -867 -97 -57
c-235 -137 -935 -551 -1098 -649 -38 -23 -176 -104 -305 -180 -235 -139 -606
-359 -647 -385 -12 -8 -25 -12 -27 -9 -3 3 -6 637 -6 1409 -1 1332 0 1405 17
1421 22 22 215 138 538 324 132 76 298 174 368 217 71 44 158 95 195 114 37
18 110 60 162 93 52 32 96 57 98 56 2 -2 5 -169 7 -372z m318 265 c72 -51 134
-95 137 -99 12 -15 88 -57 94 -52 3 4 6 -1 6 -9 0 -9 36 -40 80 -69 44 -29 80
-54 80 -56 0 -5 -70 -47 -155 -93 -44 -23 -109 -60 -145 -80 -36 -21 -100 -56
-142 -78 -67 -34 -79 -37 -90 -25 -16 19 -24 653 -8 653 6 0 70 -41 143 -92z
m-735 71 c-20 -11 -25 -34 -5 -24 6 4 1 -3 -12 -14 -21 -19 -20 -26 2 -22 4 0
7 -7 7 -16 0 -13 -3 -14 -12 -5 -17 17 -31 15 -24 -3 6 -17 -2 -19 -24 -5 -9
6 -19 5 -29 -3 -11 -9 -15 -9 -18 1 -3 6 -11 12 -19 12 -11 0 -10 -5 5 -22 11
-11 18 -25 15 -30 -3 -5 3 -12 15 -15 19 -5 30 -23 14 -23 -17 1 -45 29 -38
39 9 15 -8 14 -24 -1 -10 -11 -12 -10 -9 2 2 8 7 18 11 21 5 3 2 9 -7 12 -9 4
-16 2 -16 -3 0 -6 -5 -9 -11 -7 -6 1 -14 -4 -16 -11 -3 -6 1 -10 9 -9 7 2 9 2
5 -1 -4 -2 -3 -10 4 -18 9 -11 8 -14 -4 -14 -9 0 -19 9 -22 20 -4 11 -11 18
-16 15 -5 -4 -9 -1 -9 4 0 6 4 11 8 11 5 0 35 16 68 36 83 50 147 84 159 84 5
0 2 -5 -7 -11z m990 -19 c7 0 12 -4 12 -10 0 -5 17 -18 38 -29 20 -11 50 -31
66 -45 16 -14 32 -26 35 -26 7 0 71 -56 71 -62 0 -3 -6 -5 -14 -5 -8 0 -14 5
-13 11 1 6 -9 11 -23 10 -16 0 -24 -5 -22 -15 3 -11 1 -11 -8 -2 -15 14 -3 36
16 29 8 -3 14 -1 14 4 0 16 -27 12 -45 -7 -14 -13 -18 -14 -25 -3 -5 8 -6 18
-3 24 4 5 1 6 -6 2 -7 -5 -10 -14 -7 -21 7 -20 -21 -26 -40 -8 -12 12 -18 13
-23 4 -4 -6 -15 -9 -24 -5 -10 3 -17 1 -17 -5 0 -6 11 -11 24 -11 14 0 28 -5
32 -11 4 -8 0 -9 -15 -4 -12 4 -21 2 -21 -4 0 -6 3 -10 8 -10 19 3 33 -2 27
-11 -7 -11 -55 8 -55 22 0 4 -7 8 -15 8 -11 0 -12 5 -5 25 7 19 6 23 -5 18 -8
-3 -15 -12 -15 -21 0 -12 -4 -11 -20 6 -12 12 -25 22 -30 22 -6 0 -10 5 -10
10 0 6 5 10 11 10 7 0 18 8 26 18 7 9 12 12 11 6 -2 -7 0 -12 5 -13 21 -3 28
0 21 10 -4 8 1 9 16 4 14 -5 20 -3 16 3 -11 19 5 41 27 37 18 -4 16 1 -13 25
-19 16 -38 30 -42 30 -5 0 -8 5 -8 12 0 6 7 4 18 -5 10 -10 24 -17 30 -17z
m-840 -64 c-7 -8 -15 -12 -17 -11 -5 6 10 25 20 25 5 0 4 -6 -3 -14z m-88 -17
c0 -11 -27 -12 -34 -1 -2 4 4 9 15 9 10 1 19 -2 19 -8z m830 1 c0 -5 -2 -10
-4 -10 -3 0 -8 5 -11 10 -3 6 -1 10 4 10 6 0 11 -4 11 -10z m-961 -21 c-11 -7
-10 -9 3 -9 9 0 20 5 23 10 8 13 55 13 75 0 9 -5 19 -5 27 1 7 6 17 8 23 4 5
-3 10 -1 10 4 0 6 8 11 17 11 21 0 -66 -60 -114 -79 -18 -8 -33 -17 -33 -22 0
-5 -7 -9 -15 -9 -8 0 -15 5 -15 11 0 5 -5 7 -12 3 -7 -5 -8 -3 -4 5 5 7 14 10
20 8 7 -3 19 -1 27 5 11 8 11 9 -3 4 -10 -3 -20 -1 -23 4 -4 6 0 10 7 11 7 0
3 5 -9 11 -12 6 -24 17 -27 25 -3 8 -1 11 4 8 6 -3 10 -1 10 5 0 6 5 8 11 4 8
-4 7 -9 -2 -15z m926 1 c3 -6 -1 -7 -9 -4 -18 7 -21 14 -7 14 6 0 13 -4 16
-10z m-1170 -70 c3 -6 -1 -7 -9 -4 -18 7 -21 14 -7 14 6 0 13 -4 16 -10z m219
-16 c20 -8 21 -24 2 -24 -8 0 -16 7 -20 15 -6 17 -4 18 18 9z m552 -56 c8 -7
21 -19 29 -26 18 -16 50 -12 50 6 0 6 5 13 10 15 12 2 22 -64 20 -125 -2 -38
-5 -43 -23 -41 -12 2 -22 -1 -22 -6 0 -11 -19 -9 -39 3 -10 6 -12 5 -7 -2 4
-7 2 -12 -3 -12 -6 0 -11 6 -11 13 0 8 -4 7 -10 -3 -5 -8 -10 -10 -11 -5 -5
32 -7 195 -3 195 3 0 12 -6 20 -12z m874 -8 c0 -5 -2 -10 -4 -10 -3 0 -8 5
-11 10 -3 6 -1 10 4 10 6 0 11 -4 11 -10z m-1840 -14 c0 -3 -13 -14 -30 -26
-16 -12 -30 -18 -30 -13 0 4 12 15 28 25 32 19 32 19 32 14z m-70 -44 c0 -4
-15 -16 -32 -26 l-33 -17 30 25 c33 29 35 30 35 18z m1907 -21 c0 -11 -5 -18
-9 -15 -4 3 -5 11 -1 19 7 21 12 19 10 -4z m-1880 -7 c-3 -3 -12 -4 -19 -1 -8
3 -5 6 6 6 11 1 17 -2 13 -5z m63 -25 c0 -6 -4 -7 -10 -4 -5 3 -10 11 -10 16
0 6 5 7 10 4 6 -3 10 -11 10 -16z m-198 -16 c-6 -3 -9 -10 -6 -15 4 -6 2 -8
-4 -4 -6 3 -13 2 -17 -3 -3 -5 3 -14 12 -20 10 -5 14 -13 10 -17 -5 -5 -12 -2
-16 5 -6 9 -11 10 -15 2 -4 -6 -4 -15 -1 -21 3 -5 3 -10 -2 -11 -4 0 -17 -2
-28 -4 -29 -5 -63 21 -47 37 7 7 12 8 12 2 0 -6 11 -16 25 -22 31 -14 32 -6 3
17 -19 16 -19 18 -5 24 10 4 17 2 17 -3 0 -6 8 -10 18 -9 10 0 12 3 5 6 -7 2
-13 9 -13 14 0 11 53 39 60 32 3 -3 -1 -8 -8 -10z m248 -34 c0 -4 -6 -9 -13
-12 -8 -3 -14 0 -14 7 0 7 6 13 14 13 7 0 13 -4 13 -8z m-210 -9 c0 -5 -4 -10
-9 -10 -6 0 -13 5 -16 10 -3 6 1 10 9 10 9 0 16 -4 16 -10z m61 -7 c13 -16 12
-17 -3 -5 -13 10 -17 10 -21 0 -2 -7 -8 -9 -13 -5 -6 6 10 25 22 27 1 0 8 -8
15 -17z m88 -7 c7 -8 8 -17 3 -20 -6 -3 -12 3 -15 14 -6 24 -4 25 12 6z m-319
-10 c0 -9 -32 -36 -42 -36 -6 0 -1 9 12 20 23 20 30 24 30 16z m280 -7 c0 -5
5 -7 10 -4 6 3 10 2 10 -3 0 -6 -7 -12 -15 -16 -9 -3 -15 0 -15 8 0 8 -6 17
-12 19 -8 3 -6 6 5 6 9 1 17 -4 17 -10z m1917 -11 c-3 -8 -6 -5 -6 6 -1 11 2
17 5 13 3 -3 4 -12 1 -19z m-1967 -3 c0 -18 16 -20 23 -2 4 8 6 7 6 -3 1 -8
-9 -21 -20 -29 -18 -11 -23 -11 -30 1 -5 7 -7 18 -4 25 2 7 -2 10 -9 7 -8 -3
-17 -1 -21 5 -4 7 5 11 24 11 21 0 31 -5 31 -15z m-96 -9 c-3 -7 2 -16 11 -20
9 -3 13 -11 10 -17 -5 -6 -11 -4 -19 7 -8 11 -21 15 -34 12 -14 -4 -19 -2 -15
8 4 11 19 19 45 23 4 0 5 -5 2 -13z m61 -27 c7 -22 -11 -43 -27 -33 -4 3 -8 1
-8 -4 0 -5 -11 -14 -25 -20 -38 -17 -30 1 10 22 32 18 33 20 20 40 -21 28 -19
39 4 26 11 -5 23 -20 26 -31z m1795 16 c-14 -17 -40 -20 -40 -5 0 9 14 14 33
11 4 0 7 4 7 11 0 6 3 8 6 5 4 -4 1 -13 -6 -22z m-1960 -2 c0 -8 -5 -13 -12
-11 -18 6 -21 25 -3 25 8 0 15 -7 15 -14z m1910 -2 c8 -16 4 -22 -26 -40 -19
-12 -38 -21 -41 -21 -2 0 -18 -9 -34 -21 -25 -17 -29 -18 -29 -4 0 9 5 13 10
10 6 -3 10 -1 10 5 0 8 -7 9 -17 5 -55 -22 -94 -9 -48 15 13 7 21 18 18 23 -4
6 9 2 28 -10 34 -20 59 -21 59 -1 0 7 -5 6 -14 -1 -10 -8 -16 -9 -21 -1 -3 5
-1 10 5 10 7 0 9 7 6 16 -3 8 -2 12 3 9 5 -3 13 -1 16 5 4 6 15 8 26 5 11 -4
19 -2 19 4 0 18 19 12 30 -8z m172 -29 c-5 -15 -3 -14 12 1 18 17 19 17 38 -3
22 -24 38 -19 18 5 -11 13 -10 14 4 9 19 -7 22 -44 4 -45 -10 0 -10 -2 0 -6 7
-3 12 -24 12 -54 0 -32 -4 -49 -12 -50 -10 0 -10 -2 0 -6 20 -8 15 -67 -8 -83
-11 -8 -20 -20 -20 -28 0 -7 -4 -11 -9 -7 -6 3 -8 14 -6 24 4 23 -33 37 -42
15 -3 -8 -11 -14 -19 -14 -8 0 -13 -3 -13 -7 3 -18 -2 -33 -10 -33 -5 0 -9 69
-9 160 1 88 5 160 10 160 4 0 8 -4 8 -9 0 -5 7 -11 15 -15 13 -5 14 -2 4 17
-12 22 -12 22 9 4 13 -12 18 -25 14 -35z m-282 17 c0 -14 -17 -10 -23 5 -4 10
-1 13 9 9 7 -3 14 -9 14 -14z m-121 -13 c-10 -9 -89 -46 -89 -41 0 6 72 44 84
45 5 0 7 -2 5 -4z m-1579 -10 c0 -11 -19 -15 -25 -6 -3 5 1 10 9 10 9 0 16 -2
16 -4z m1670 -66 c0 -5 -7 -10 -15 -10 -8 0 -15 5 -15 10 0 6 7 10 15 10 8 0
15 -4 15 -10z m-39 -17 c13 -16 12 -17 -3 -4 -17 13 -22 21 -14 21 2 0 10 -8
17 -17z m-21 -23 c-18 -12 -30 -13 -30 -2 0 4 10 9 22 9 18 2 20 0 8 -7z
m-473 -22 c-3 -8 -6 -5 -6 6 -1 11 2 17 5 13 3 -3 4 -12 1 -19z m419 -3 c-25
-19 -41 -19 -24 0 7 8 20 14 28 14 11 0 10 -3 -4 -14z m-1736 -9 c0 -2 -7 -7
-16 -10 -8 -3 -12 -2 -9 4 6 10 25 14 25 6z m1688 -21 c-3 -3 -9 2 -12 12 -6
14 -5 15 5 6 7 -7 10 -15 7 -18z m-352 -24 c-3 -4 3 -16 13 -25 16 -14 23 -15
41 -6 17 9 25 9 34 0 8 -8 7 -10 -6 -5 -11 4 -18 2 -18 -5 0 -6 -4 -8 -10 -5
-5 3 -10 2 -10 -3 0 -6 7 -12 15 -16 8 -3 15 0 15 7 0 8 3 8 9 -2 6 -9 22 -12
50 -8 23 2 39 2 36 -1 -11 -11 -54 -17 -100 -13 -21 1 -80 46 -80 61 0 5 -3
12 -7 16 -5 4 -8 16 -8 26 0 18 1 18 16 4 8 -9 13 -20 10 -25z m304 -1 c0 -5
-2 -10 -4 -10 -3 0 -8 5 -11 10 -3 6 -1 10 4 10 6 0 11 -4 11 -10z m-265 -18
c-3 -3 -11 0 -18 7 -9 10 -8 11 6 5 10 -3 15 -9 12 -12z m190 -22 c3 -5 1 -10
-4 -10 -6 0 -11 5 -11 10 0 6 2 10 4 10 3 0 8 -4 11 -10z m620 -9 c3 -5 0 -13
-6 -17 -7 -4 -9 -3 -5 4 3 5 0 13 -6 15 -9 4 -10 6 -1 6 6 1 14 -3 18 -8z
m-2445 -53 c0 -12 -3 -18 -7 -14 -10 10 -11 46 -1 40 4 -3 8 -15 8 -26z m2377
-20 c2 -17 0 -19 -7 -8 -5 8 -6 18 -4 22 8 12 10 10 11 -14z m-2377 -69 c0
-33 -3 -58 -7 -56 -5 3 -7 29 -6 59 2 61 2 58 8 58 3 0 5 -27 5 -61z m21 -72
c-10 -9 -11 -8 -5 6 3 10 9 15 12 12 3 -3 0 -11 -7 -18z m-21 -7 c0 -5 -4 -10
-10 -10 -5 0 -10 5 -10 10 0 6 5 10 10 10 6 0 10 -4 10 -10z m-9 -93 c-9 -9
-10 -5 -7 13 6 36 8 37 13 16 3 -10 0 -23 -6 -29z m129 9 c0 -3 -4 -8 -10 -11
-5 -3 -10 -1 -10 4 0 6 5 11 10 11 6 0 10 -2 10 -4z m2410 -38 c0 -36 -10 -32
-14 6 -2 14 1 26 5 26 5 0 9 -14 9 -32z m-59 -55 c13 -16 12 -17 -3 -4 -17 13
-22 21 -14 21 2 0 10 -8 17 -17z m62 -13 c-7 -28 -13 -25 -13 6 0 14 4 23 9
20 5 -3 7 -15 4 -26z m7 -134 c0 -3 -4 -8 -10 -11 -5 -3 -10 -1 -10 4 0 6 5
11 10 11 6 0 10 -2 10 -4z m-6 -41 c-4 -8 -8 -15 -10 -15 -2 0 -4 7 -4 15 0 8
4 15 10 15 5 0 7 -7 4 -15z m-2574 -847 l-1 -823 -121 -70 c-67 -38 -140 -81
-163 -95 -23 -14 -106 -63 -184 -109 -77 -46 -141 -87 -141 -90 0 -5 200 -126
364 -220 22 -13 114 -68 204 -122 90 -55 165 -99 168 -99 2 0 22 -12 44 -26
l39 -26 108 65 c59 35 212 125 338 199 127 75 304 180 395 233 91 54 235 140
320 190 85 51 180 107 211 126 31 19 116 69 190 113 74 43 222 130 329 193
107 64 254 149 325 190 146 85 485 285 587 347 37 23 88 53 113 68 51 31 56
44 20 58 -22 8 -142 79 -462 271 -45 27 -86 49 -92 49 -7 0 -11 72 -13 200 -2
131 1 200 7 200 6 0 26 -11 45 -24 19 -13 123 -75 230 -138 107 -63 292 -173
410 -244 118 -72 271 -164 340 -205 69 -41 127 -77 128 -81 2 -5 8 -8 13 -8 6
0 36 -16 67 -37 31 -20 71 -44 87 -53 53 -31 239 -140 255 -150 100 -62 353
-216 600 -362 201 -120 249 -159 269 -217 14 -44 6 -54 -113 -124 -50 -30
-293 -175 -541 -323 -247 -147 -538 -320 -645 -384 -107 -64 -225 -136 -262
-159 l-68 -43 0 -755 c0 -659 2 -754 15 -750 8 4 71 40 141 82 70 42 128 75
129 73 4 -4 -91 -259 -239 -638 -70 -179 -144 -369 -164 -422 -20 -54 -40 -97
-43 -95 -3 1 -103 148 -223 326 -199 297 -215 324 -199 337 10 7 65 38 123 69
58 32 109 61 114 65 9 9 9 1490 1 1499 -3 2 -51 -25 -107 -59 -104 -64 -390
-235 -793 -473 -121 -71 -254 -151 -295 -177 -41 -26 -162 -98 -267 -161
l-193 -114 0 -160 c0 -88 -2 -344 -4 -570 -2 -225 -4 -1043 -5 -1817 -1 -945
-5 -1408 -12 -1408 -6 0 -7 -5 -3 -12 8 -13 14 -495 6 -516 -2 -6 -13 -12 -23
-12 -10 0 -19 -4 -19 -8 0 -4 -13 -12 -29 -18 -29 -11 -58 -3 -73 20 -4 6 -13
11 -20 11 -10 0 -14 51 -16 235 -1 129 -2 254 -2 278 1 23 1 48 1 55 -8 297
-11 747 -15 2176 l-6 1734 -22 16 c-12 9 -52 34 -89 56 -37 22 -117 69 -176
105 -59 36 -112 67 -117 69 -6 2 -47 28 -93 57 -45 30 -85 54 -88 54 -3 0 -18
8 -33 19 -27 18 -156 95 -242 143 -25 14 -207 124 -405 243 -198 120 -425 256
-505 303 -80 46 -157 93 -172 103 -14 11 -31 19 -37 19 -6 0 -11 5 -11 10 0 6
-4 10 -9 10 -5 0 -102 57 -217 126 -115 70 -222 134 -239 143 -16 9 -32 19
-35 22 -3 3 -12 8 -20 12 -8 4 -36 19 -61 34 -143 87 -545 330 -564 343 -13 8
-66 39 -117 69 -144 84 -309 182 -351 208 -43 27 -43 37 -1 110 30 51 61 73
302 212 103 60 221 129 262 154 41 25 100 60 130 78 30 17 119 72 197 120 78
49 144 89 147 89 3 0 25 13 48 29 24 16 93 58 153 94 61 35 232 138 380 227
605 365 701 424 735 442 19 11 39 24 45 29 5 5 13 9 17 9 4 0 8 -370 8 -822z
m2417 740 c-3 -7 -5 -2 -5 12 0 14 2 19 5 13 2 -7 2 -19 0 -25z m0 -70 c-2
-13 -4 -5 -4 17 -1 22 1 32 4 23 2 -10 2 -28 0 -40z m157 -289 c3 -17 6 -107
6 -200 0 -169 0 -169 -22 -169 -18 0 -20 2 -9 9 14 9 16 130 6 329 -3 65 8 84
19 31z m-2410 -187 c3 -5 -1 -9 -9 -9 -8 0 -12 4 -9 9 3 4 7 8 9 8 2 0 6 -4 9
-8z m2366 -2 c-13 -9 -13 -11 0 -20 9 -6 10 -10 3 -10 -6 0 -15 5 -18 10 -8
13 3 30 18 30 7 0 6 -4 -3 -10z m-2366 -136 c3 -8 2 -12 -4 -9 -6 3 -10 10
-10 16 0 14 7 11 14 -7z m2366 -54 c0 -5 -5 -10 -11 -10 -5 0 -7 5 -4 10 3 6
8 10 11 10 2 0 4 -4 4 -10z m-40 -30 c-33 -23 -50 -30 -50 -23 0 5 10 13 23
19 28 15 47 17 27 4z m-65 -39 c-3 -6 -11 -11 -16 -11 -5 0 -4 6 3 14 14 16
24 13 13 -3z m-2257 -646 c-3 -3 -9 2 -12 12 -6 14 -5 15 5 6 7 -7 10 -15 7
-18z m0 -110 c0 -30 -4 -55 -8 -55 -5 0 -7 6 -4 13 2 7 -7 19 -21 27 -14 7
-25 17 -25 22 0 5 9 4 19 -2 27 -14 29 -13 27 13 -2 20 2 37 8 37 1 0 3 -25 4
-55z m-144 -216 c-1 -165 2 -206 13 -218 11 -10 17 -11 22 -3 5 8 15 7 35 -3
27 -14 28 -14 23 4 -3 13 1 21 14 24 11 3 19 1 19 -4 0 -5 -4 -9 -10 -9 -5 0
-10 -6 -10 -14 0 -20 -21 -31 -30 -16 -5 8 -10 9 -14 2 -3 -6 3 -13 14 -17 11
-3 20 -11 20 -16 0 -5 6 -9 13 -9 8 0 22 -9 32 -20 26 -29 13 -25 -49 15 -30
19 -60 35 -66 35 -5 0 -10 5 -10 10 0 6 -7 10 -15 10 -13 0 -15 31 -15 221 0
121 3 218 8 215 4 -2 7 -96 6 -207z m5026 -239 l0 -199 -62 -37 c-35 -20 -117
-68 -183 -107 -103 -60 -372 -219 -940 -557 -131 -78 -189 -110 -200 -110 -7
0 -6 322 2 368 5 28 15 38 77 74 111 64 392 230 611 361 110 66 286 171 390
232 105 62 213 126 240 143 28 18 53 32 58 32 4 0 7 -90 7 -200z m-4995 50 c3
-5 1 -10 -4 -10 -6 0 -11 5 -11 10 0 6 2 10 4 10 3 0 8 -4 11 -10z m45 -4 c0
-3 -4 -8 -10 -11 -5 -3 -10 -1 -10 4 0 6 5 11 10 11 6 0 10 -2 10 -4z m76 -37
c3 -6 1 -16 -6 -22 -10 -9 -11 -9 -6 1 4 7 1 12 -8 12 -9 0 -16 5 -16 10 0 13
27 13 36 -1z m-26 -29 c0 -5 -2 -10 -4 -10 -3 0 -8 5 -11 10 -3 6 -1 10 4 10
6 0 11 -4 11 -10z m4632 -662 c-14 -18 -45 -101 -252 -678 -100 -278 -208
-577 -239 -665 -32 -88 -64 -178 -71 -200 -7 -22 -42 -116 -77 -210 -36 -93
-121 -330 -190 -525 -175 -497 -173 -492 -258 -725 -43 -115 -97 -269 -121
-340 l-45 -130 -87 -52 c-228 -133 -348 -202 -364 -208 -14 -6 -26 7 -55 54
-21 34 -137 221 -258 416 -121 195 -264 428 -319 517 -54 90 -158 260 -231
378 -73 118 -176 287 -230 375 -54 88 -111 180 -128 204 -24 35 -27 45 -16 52
20 13 335 201 390 233 36 21 48 24 57 14 5 -7 48 -76 94 -153 46 -77 155 -255
242 -395 250 -402 498 -806 594 -968 30 -51 58 -89 62 -85 8 9 89 233 184 503
96 276 288 813 438 1225 22 61 47 133 55 160 12 41 137 389 294 821 16 44 29
85 29 92 0 18 10 24 429 268 72 42 96 49 73 22z m251 -3274 c-10 -8 -99 -62
-198 -120 -99 -59 -225 -134 -280 -167 -55 -32 -284 -170 -510 -305 -225 -135
-444 -266 -485 -292 -41 -26 -138 -85 -215 -130 -337 -200 -564 -336 -760
-455 -254 -154 -416 -252 -550 -329 -55 -33 -127 -76 -160 -96 -33 -21 -76
-46 -95 -56 -19 -11 -50 -29 -68 -41 -19 -13 -39 -23 -43 -23 -5 0 -9 722 -8
1623 0 1040 4 1617 10 1607 5 -8 82 -136 170 -284 l161 -268 -1 -1039 c-1
-769 1 -1039 10 -1039 6 0 23 8 37 19 15 10 153 94 307 186 154 93 330 198
390 236 61 37 128 77 151 90 91 53 1376 826 1462 880 51 33 95 59 97 59 3 0
60 34 127 75 l123 74 -1 1008 c0 554 3 1046 6 1093 6 73 19 116 89 305 92 247
144 388 192 520 17 50 37 101 43 115 8 18 12 -399 14 -1604 2 -1542 1 -1629
-15 -1642z m-2235 2625 c1 -189 -2 -219 -19 -219 -5 0 -62 -32 -127 -71 -64
-40 -178 -108 -252 -152 -74 -45 -209 -126 -300 -180 -181 -110 -431 -257
-436 -257 -1 0 -3 89 -4 199 l-1 199 78 44 c76 44 447 265 648 388 187 113
400 239 406 239 4 1 7 -85 7 -190z m-1678 -309 c0 -5 -5 -10 -11 -10 -5 0 -7
5 -4 10 3 6 8 10 11 10 2 0 4 -4 4 -10z"/>
<path d="M13920 13480 c0 -5 5 -10 11 -10 5 0 7 5 4 10 -3 6 -8 10 -11 10 -2
0 -4 -4 -4 -10z"/>
<path d="M13888 13473 c-10 -2 -18 -8 -18 -13 0 -8 29 -35 31 -29 1 7 6 49 5
48 -1 -1 -9 -3 -18 -6z"/>
<path d="M14990 13430 c0 -5 5 -10 11 -10 5 0 7 5 4 10 -3 6 -8 10 -11 10 -2
0 -4 -4 -4 -10z"/>
<path d="M15015 13400 c3 -5 11 -10 16 -10 6 0 7 5 4 10 -3 6 -11 10 -16 10
-6 0 -7 -4 -4 -10z"/>
<path d="M14943 13385 c-8 -15 -7 -23 3 -32 17 -17 26 -1 16 28 -9 23 -9 23
-19 4z"/>
<path d="M14980 13371 c0 -14 18 -23 31 -15 8 4 7 9 -2 15 -18 11 -29 11 -29
0z"/>
<path d="M13920 13378 c0 -6 6 -8 14 -5 7 3 19 1 25 -4 8 -6 8 -5 1 3 -13 15
-40 19 -40 6z"/>
<path d="M14417 13217 c-3 -8 1 -14 8 -14 7 0 11 6 8 14 -3 7 -6 13 -8 13 -2
0 -5 -6 -8 -13z"/>
<path d="M14456 13191 c-4 -5 -2 -12 3 -15 5 -4 12 -2 15 3 4 5 2 12 -3 15 -5
4 -12 2 -15 -3z"/>
<path d="M14415 13100 c-3 -6 1 -7 9 -4 18 7 21 14 7 14 -6 0 -13 -4 -16 -10z"/>
<path d="M14456 13083 c-6 -14 -5 -15 5 -6 7 7 10 15 7 18 -3 3 -9 -2 -12 -12z"/>
<path d="M15012 12976 c7 -7 19 -11 26 -9 16 7 8 16 -19 20 -16 2 -18 1 -7
-11z"/>
<path d="M14916 12947 c-16 -12 -16 -14 -3 -14 9 0 18 6 21 14 3 7 4 13 3 13
-2 0 -11 -6 -21 -13z"/>
<path d="M15270 12959 c0 -5 5 -7 10 -4 6 3 10 8 10 11 0 2 -4 4 -10 4 -5 0
-10 -5 -10 -11z"/>
<path d="M13996 4402 c-3 -5 1 -9 9 -9 8 0 12 4 9 9 -3 4 -7 8 -9 8 -2 0 -6
-4 -9 -8z"/>
<path d="M14050 4136 c0 -2 7 -7 16 -10 8 -3 12 -2 9 4 -6 10 -25 14 -25 6z"/>
<path d="M14090 4136 c0 -2 7 -6 15 -10 8 -3 15 -1 15 4 0 6 -7 10 -15 10 -8
0 -15 -2 -15 -4z"/>
<path d="M14085 4099 c-4 -6 -5 -12 -2 -15 2 -3 7 2 10 11 7 17 1 20 -8 4z"/>
<path d="M14113 4103 c4 -6 2 -13 -4 -15 -7 -2 -6 -8 3 -16 12 -9 14 -8 13 8
-1 11 -5 23 -10 27 -4 5 -5 3 -2 -4z"/>
<path d="M14050 4076 c0 -2 7 -7 16 -10 8 -3 12 -2 9 4 -6 10 -25 14 -25 6z"/>
<path d="M14085 4051 c-3 -6 3 -9 14 -8 11 0 17 5 15 9 -7 11 -22 10 -29 -1z"/>
<path d="M14010 4033 c0 -10 4 -14 8 -8 4 6 11 13 16 18 5 4 2 7 -7 7 -10 0
-17 -8 -17 -17z"/>
<path d="M14046 4002 c-2 -4 -1 -14 5 -22 7 -12 9 -10 9 8 0 23 -5 28 -14 14z"/>
<path d="M14076 3987 c3 -10 9 -15 12 -12 3 3 0 11 -7 18 -10 9 -11 8 -5 -6z"/>
<path d="M14015 3980 c-3 -5 -1 -10 4 -10 6 0 11 5 11 10 0 6 -2 10 -4 10 -3
0 -8 -4 -11 -10z"/>
<path d="M14010 3909 c0 -5 5 -7 10 -4 6 3 10 8 10 11 0 2 -4 4 -10 4 -5 0
-10 -5 -10 -11z"/>
<path d="M14065 3890 c3 -5 8 -10 11 -10 2 0 4 5 4 10 0 6 -5 10 -11 10 -5 0
-7 -4 -4 -10z"/>
<path d="M9369 2672 l-137 -3 38 -87 c21 -48 75 -175 120 -282 72 -170 141
-327 275 -630 19 -41 38 -87 44 -103 l11 -28 141 3 141 3 120 275 c65 151 152
352 193 445 40 94 96 222 124 285 28 63 51 117 51 120 0 3 -44 4 -97 3 -54 -2
-117 -3 -139 -3 -42 0 -42 0 -67 -62 -14 -35 -83 -193 -152 -353 -70 -159
-134 -309 -143 -332 -9 -24 -19 -43 -22 -43 -3 0 -28 51 -54 113 -94 217 -238
553 -264 614 -15 35 -31 64 -37 65 -5 2 -71 2 -146 0z"/>
<path d="M11858 2672 l-58 -3 0 -347 c0 -191 5 -376 11 -412 22 -140 115 -272
233 -330 88 -43 208 -64 333 -57 207 12 347 94 425 252 51 102 53 124 53 525
l0 375 -135 -1 -135 -1 -5 -379 c-4 -259 -9 -387 -17 -405 -21 -47 -73 -97
-118 -114 -32 -13 -66 -16 -133 -14 -82 4 -94 7 -134 35 -28 21 -54 52 -73 90
l-30 58 -5 364 -5 364 -75 2 c-41 0 -101 0 -132 -2z"/>
<path d="M13124 2672 c-20 -3 -20 -5 -22 -567 l-2 -565 425 0 425 0 0 110 0
110 -284 0 c-218 0 -285 3 -288 13 -4 10 -7 301 -8 777 l0 125 -113 0 c-61 0
-121 -1 -133 -3z"/>
<path d="M13977 2672 l-98 -3 3 -107 3 -106 180 -1 180 0 3 -457 2 -458 138 0
137 0 -1 448 c0 246 1 452 3 458 3 8 58 10 184 8 l179 -4 0 110 0 110 -72 0
c-40 0 -224 1 -408 3 -184 1 -379 1 -433 -1z"/>
<path d="M15635 2669 c-2 -3 -4 -259 -3 -568 l0 -562 342 3 c375 5 401 8 524
70 127 63 233 183 274 309 25 75 30 240 10 328 -45 198 -210 355 -429 407 -55
14 -129 17 -391 18 -178 1 -325 -2 -327 -5z m661 -235 c131 -37 224 -171 224
-323 -1 -164 -86 -282 -235 -327 -57 -17 -293 -30 -348 -20 l-37 7 0 338 c0
186 2 340 5 343 11 11 342 -4 391 -18z"/>
<path d="M17053 2672 l-193 -2 0 -110 0 -110 175 1 c96 0 179 -2 184 -5 6 -4
9 -189 8 -456 l-2 -450 137 0 138 0 2 458 3 457 173 2 c96 1 175 3 177 5 2 1
5 49 6 106 l3 103 -310 2 c-170 1 -396 1 -501 -1z"/>
<path d="M18014 2671 c-2 -2 -4 -258 -4 -568 l0 -563 460 0 460 0 0 110 0 110
-325 0 -326 0 3 123 3 122 273 3 272 2 0 105 0 105 -275 0 -275 0 0 120 0 120
310 0 310 0 0 105 c0 77 -3 105 -12 106 -53 3 -871 3 -874 0z"/>
<path d="M10892 2653 c-6 -10 -96 -208 -201 -441 -106 -233 -218 -479 -251
-547 l-59 -125 147 0 147 0 44 108 c25 59 49 113 54 120 15 19 523 15 543 -5
8 -8 14 -18 14 -23 0 -5 21 -52 46 -104 l46 -96 149 0 149 0 -46 93 c-26 50
-70 144 -99 207 -29 63 -82 178 -118 255 -36 77 -110 237 -165 355 l-99 215
-146 3 c-131 2 -147 1 -155 -15z m168 -265 c0 -12 48 -127 116 -281 24 -54 44
-103 44 -108 0 -5 -75 -9 -175 -9 -96 0 -175 3 -175 7 0 4 35 91 79 193 43
102 81 193 85 203 6 19 26 15 26 -5z"/>
<path d="M14940 2000 l0 -110 240 0 240 0 1 53 c1 28 2 77 3 107 l1 55 -242 3
-243 2 0 -110z"/>
</g>
</svg>
